# xmcd CD database file
# Copyright (C) 1993-1996 Ti Kan
#
# Track frame offsets:
# 150
# 14275
# 31795
# 41047
# 72822
# 99265
# 108560
# 133715
# 160845
# 178975
# 191165
# 213960
# 233115
#
# Disc length: 3362 seconds
# Revision: 0
# Processed by: cddbd v1.4b41PL1 Copyright (c) Steve Scherf et al.
# Submitted via: CDSpectrumPro v3.2.328
#
DISCID=ae0d200d
DTITLE=Maggie Sansone - Music in the Great Hall
DYEAR=1900
DGENRE=
TTITLE0=Moirrey Ny Cainle
TTITLE1=Fingal's March
TTITLE2=The Pretty Girl Milking the Cows
TTITLE3=Songs from a Scottish Childhood
TTITLE4=Captain O'Kane
TTITLE5=Boys of the Lough
TTITLE6=Planxty Drew
TTITLE7=Gosteg Dafydd Athro
TTITLE8=The Reaper of Glanree
TTITLE9=Gin Ye Kiss My Wife, I'll Tell the Minister
TTITLE10=The Galician Waltz
TTITLE11=Miss Patterson
TTITLE12=Shooyl Inneenyn
EXTD=Instrumental music form the ancient Celtic lands
EXTT0=
EXTT1=
EXTT2=
EXTT3=
EXTT4=
EXTT5=
EXTT6=
EXTT7=
EXTT8=
EXTT9=
EXTT10=
EXTT11=
EXTT12=
PLAYORDER=
